{
    "asset" : {
        "generator" : "Khronos glTF Blender I/O v1.8.19",
        "version" : "2.0"
    },
    "scene" : 0,
    "scenes" : [
        {
            "name" : "Scene",
            "nodes" : [
                0
            ]
        }
    ],
    "nodes" : [
        {
            "name" : "Stroke",
            "translation" : [
                0,
                5.08038330078125,
                0
            ]
        }
    ],
    "animations" : [
        {
            "channels" : [
                {
                    "sampler" : 0,
                    "target" : {
                        "node" : 0,
                        "path" : "translation"
                    }
                },
                {
                    "sampler" : 1,
                    "target" : {
                        "node" : 0,
                        "path" : "rotation"
                    }
                },
                {
                    "sampler" : 2,
                    "target" : {
                        "node" : 0,
                        "path" : "scale"
                    }
                }
            ],
            "name" : "StrokeAction",
            "samplers" : [
                {
                    "input" : 0,
                    "interpolation" : "STEP",
                    "output" : 1
                },
                {
                    "input" : 0,
                    "interpolation" : "STEP",
                    "output" : 2
                },
                {
                    "input" : 0,
                    "interpolation" : "STEP",
                    "output" : 3
                }
            ]
        }
    ],
    "accessors" : [
        {
            "bufferView" : 0,
            "componentType" : 5126,
            "count" : 1,
            "max" : [
                0.041666666666666664
            ],
            "min" : [
                0.041666666666666664
            ],
            "type" : "SCALAR"
        },
        {
            "bufferView" : 1,
            "componentType" : 5126,
            "count" : 1,
            "type" : "VEC3"
        },
        {
            "bufferView" : 2,
            "componentType" : 5126,
            "count" : 1,
            "type" : "VEC4"
        },
        {
            "bufferView" : 3,
            "componentType" : 5126,
            "count" : 1,
            "type" : "VEC3"
        }
    ],
    "bufferViews" : [
        {
            "buffer" : 0,
            "byteLength" : 4,
            "byteOffset" : 0
        },
        {
            "buffer" : 0,
            "byteLength" : 12,
            "byteOffset" : 4
        },
        {
            "buffer" : 0,
            "byteLength" : 16,
            "byteOffset" : 16
        },
        {
            "buffer" : 0,
            "byteLength" : 12,
            "byteOffset" : 32
        }
    ],
    "buffers" : [
        {
            "byteLength" : 44,
            "uri" : "data:application/octet-stream;base64,"
        }
    ]
}
